<svg width="1040" height="1040" xmlns="http://www.w3.org/2000/svg" xmlns:xlink="http://www.w3.org/1999/xlink" xml:space="preserve" overflow="hidden"><g transform="translate(-601 94)"><g><g><g><g><path d="M267.36 563.655C264.187 562.967 260.962 562.625 257.748 562.625 236.607 562.625 218.024 577.645 213.556 598.33 210.999 610.148 213.194 622.248 219.751 632.414 226.295 642.575 236.416 649.576 248.235 652.133 251.383 652.813 254.608 653.151 257.826 653.151 278.967 653.151 297.562 638.14 302.018 617.455 304.417 606.381 302.486 595.116 296.85 585.358L358.375 515.664C362.659 518.294 367.326 520.351 372.389 521.455 375.537 522.135 378.775 522.473 381.98 522.473 399.386 522.473 414.915 512.214 422.417 497.068L494.209 512.597C494.836 532.891 509.037 550.998 529.747 555.474 532.899 556.154 536.133 556.504 539.346 556.504 540.893 556.504 542.392 556.26 543.907 556.101L571.467 646.045C563.277 652.41 557.208 661.5 554.907 672.138 552.415 683.7 554.728 695.136 560.308 704.597L498.962 774.121C494.571 771.384 489.774 769.262 484.557 768.117 481.405 767.437 478.183 767.099 474.978 767.099 453.825 767.099 435.233 782.119 430.753 802.804 428.196 814.623 430.391 826.735 436.948 836.896 443.505 847.057 453.613 854.058 465.44 856.628 468.588 857.308 471.814 857.646 475.019 857.646 496.16 857.646 514.747 842.626 519.231 821.941 521.63 810.868 519.695 799.603 514.063 789.865L575.588 720.117C579.832 722.728 584.454 724.826 589.59 725.941 592.738 726.622 595.964 726.96 599.169 726.96 616.587 726.96 632.137 716.701 639.626 701.563L711.41 717.071C712.037 737.365 726.239 755.472 746.948 759.948 750.108 760.628 753.346 760.986 756.559 760.986 777.7 760.986 796.284 745.966 800.751 725.269 806.013 700.883 790.472 676.74 766.085 671.458 762.925 670.778 759.699 670.44 756.494 670.44 739.1 670.44 723.547 680.699 716.049 695.857L644.257 680.336C644.025 672.179 641.732 664.2 637.203 657.167 630.658 647.006 620.538 640.005 608.711 637.447 605.559 636.767 602.333 636.417 599.12 636.417 596.509 636.417 593.956 636.649 591.451 637.085L564.36 548.68C573.865 542.294 581.025 532.512 583.55 520.791 586.01 509.388 583.782 498.111 578.374 488.723L639.911 419C644.196 421.619 648.843 423.687 653.905 424.779 657.077 425.459 660.311 425.809 663.528 425.809 680.935 425.809 696.464 415.55 703.953 400.404L775.746 415.933C776.381 436.215 790.574 454.314 811.283 458.798 814.431 459.478 817.669 459.828 820.874 459.828 842.003 459.828 860.591 444.82 865.078 424.131 867.636 412.313 865.441 400.201 858.896 390.039 852.352 379.878 842.231 372.877 830.404 370.32 827.252 369.64 824.018 369.289 820.813 369.289 803.395 369.289 787.866 379.556 780.376 394.707L708.584 379.178C707.957 358.884 693.755 340.777 673.046 336.301 669.898 335.621 666.672 335.271 663.455 335.271 660.845 335.271 658.279 335.515 655.774 335.951L628.862 248.088C638.653 241.723 646.049 231.773 648.627 219.82 651.184 208.001 648.989 195.897 642.44 185.728 635.896 175.567 625.775 168.554 613.948 165.996 610.8 165.316 607.575 164.978 604.369 164.978 583.216 164.978 564.621 179.986 560.145 200.683 554.871 225.082 570.432 249.212 594.831 254.486 597.992 255.166 601.217 255.517 604.422 255.517 605.738 255.517 607.013 255.293 608.316 255.178L635.79 344.898C627.6 351.264 621.544 360.342 619.255 370.984 616.828 382.216 618.819 393.652 624.635 403.487L563.269 473.023C558.939 470.299 554.178 468.132 548.896 466.988 545.748 466.307 542.523 465.957 539.305 465.957 521.911 465.957 506.37 476.224 498.86 491.374L427.068 475.846C426.441 455.552 412.239 437.445 391.522 432.969 388.37 432.289 385.136 431.939 381.931 431.939 379.32 431.939 376.763 432.183 374.262 432.619L347.338 344.756C357.141 338.39 364.533 328.441 367.111 316.476 372.38 292.076 356.831 267.946 332.457 262.672 329.284 261.992 326.05 261.642 322.833 261.642 301.692 261.642 283.096 276.662 278.629 297.346 276.083 309.165 278.278 321.269 284.823 331.43 291.368 341.591 301.476 348.592 313.283 351.15 316.455 351.83 319.689 352.18 322.906 352.18 324.222 352.18 325.492 351.948 326.787 351.842L354.274 441.562C346.084 447.936 340.028 457.018 337.735 467.656 335.307 478.88 337.299 490.316 343.102 500.147L281.756 569.65C277.374 566.901 272.581 564.779 267.372 563.655ZM497.992 817.364C495.309 829.753 482.451 838.089 470.03 835.397 463.876 834.061 458.614 830.412 455.201 825.13 451.797 819.848 450.652 813.548 451.988 807.414 454.322 796.638 463.986 788.831 474.974 788.831 476.64 788.831 478.318 789.022 479.971 789.36 486.113 790.696 491.362 794.345 494.779 799.627 498.184 804.91 499.328 811.21 497.992 817.364ZM733.508 710.755C735.842 699.987 745.519 692.171 756.494 692.171 758.172 692.171 759.846 692.35 761.491 692.701 774.169 695.45 782.25 708.01 779.513 720.696 776.841 733.097 764.13 741.478 751.542 738.717 738.856 735.98 730.772 723.433 733.508 710.755ZM604.125 658.69C610.267 660.018 615.528 663.655 618.933 668.937 622.338 674.219 623.482 680.519 622.146 686.685 619.475 699.054 606.593 707.391 594.184 704.707 581.498 701.958 573.405 689.398 576.142 676.724 578.468 665.968 588.14 658.148 599.12 658.148 600.786 658.148 602.472 658.328 604.129 658.69ZM599.405 233.256C586.719 230.519 578.622 217.971 581.371 205.285 583.705 194.517 593.369 186.71 604.357 186.71 606.023 186.71 607.697 186.889 609.354 187.239 615.496 188.567 620.758 192.216 624.162 197.498 627.567 202.78 628.716 209.08 627.376 215.234 624.704 227.615 611.94 235.939 599.405 233.256ZM317.864 329.915C311.723 328.588 306.469 324.951 303.068 319.668 299.676 314.386 298.528 308.086 299.855 301.932 302.177 291.176 311.841 283.369 322.821 283.369 324.499 283.369 326.185 283.548 327.85 283.911 340.529 286.648 348.6 299.208 345.864 311.894 343.192 324.295 330.473 332.652 317.868 329.915ZM280.779 612.877C278.116 625.278 265.336 633.582 252.816 630.899 246.675 629.575 241.413 625.934 238.008 620.64 234.604 615.357 233.459 609.077 234.795 602.924 237.12 592.156 246.773 584.348 257.752 584.348 259.418 584.348 261.104 584.528 262.77 584.89 268.911 586.218 274.161 589.855 277.566 595.137 280.97 600.431 282.119 606.723 280.779 612.873ZM797.835 409.6C800.161 398.844 809.813 391.025 820.801 391.025 822.467 391.025 824.153 391.204 825.81 391.567 831.964 392.894 837.214 396.531 840.618 401.813 844.023 407.096 845.167 413.396 843.832 419.537 841.148 431.939 828.364 440.308 815.869 437.571 803.183 434.834 795.099 422.286 797.835 409.6ZM668.452 357.548C681.126 360.285 689.21 372.845 686.474 385.531 683.802 397.932 671.103 406.269 658.491 403.552 652.349 402.225 647.095 398.588 643.695 393.306 640.29 388.023 639.142 381.723 640.481 375.569 642.795 364.814 652.459 357.006 663.447 357.006 665.125 357.006 666.799 357.186 668.456 357.548ZM516.303 506.268C518.637 495.5 528.313 487.685 539.289 487.685 540.967 487.685 542.641 487.864 544.286 488.226 556.964 490.963 565.044 503.523 562.307 516.222 559.644 528.623 546.872 536.992 534.324 534.243 521.646 531.494 513.566 518.946 516.303 506.272ZM386.92 454.204C399.598 456.94 407.69 469.5 404.953 482.187 402.27 494.576 389.477 502.924 376.983 500.22 370.841 498.893 365.579 495.243 362.174 489.961 358.77 484.679 357.621 478.387 358.961 472.237 361.274 461.481 370.939 453.662 381.919 453.662 383.584 453.662 385.27 453.841 386.924 454.204Z" fill="#3D309F" fill-rule="nonzero" fill-opacity="1" transform="matrix(1 0 0 1.00096 602 -94)"/></g></g></g></g></g>
<style>
    @media (prefers-color-scheme:dark){:root{filter:invert(100%)}}
  </style>
  </svg>